<?xml version="1.0" encoding="UTF-8"?>
<svg width="1962px" height="766px" viewBox="0 0 1962 766" version="1.1" xmlns="http://www.w3.org/2000/svg" xmlns:xlink="http://www.w3.org/1999/xlink">
    <!-- Generator: Sketch 3.8.1 (29687) - http://www.bohemiancoding.com/sketch -->
    <title>Group</title>
    <desc>Created with Sketch.</desc>
    <defs></defs>
    <g id="Page-1" stroke="none" stroke-width="1" fill="none" fill-rule="evenodd">
        <g id="logo" fill="#FFFFFF">
            <g id="Group">
                <path d="M781.6,563.6 C782,512.1 796.9,464.9 837.1,428 C842.6,422.9 837.8,421.6 835.1,419.3 C808.1,395.9 791.1,367.3 787.8,331.2 C784.4,293.9 795.7,261.5 820.9,234.2 C881.6,168.3 997.7,162.9 1064.7,222.5 C1120.8,272.4 1122.3,357.1 1068,409.3 C1040.3,435.9 1007,450.1 969.1,454.5 C956.9,455.9 944.6,456.3 932.4,458.1 C904.6,462.2 887,478.6 877.9,504.7 C873.9,516.1 872.9,528 871.5,539.9 C870.7,547 873.1,547.8 879.2,546 C900.3,539.6 921.9,535.8 943.7,533.4 C969.6,530.5 995.5,530.8 1021.1,536.8 C1079.5,550.4 1110.7,595.4 1102.8,655 C1095.4,710.6 1060.7,742.7 1009.7,757.8 C903.4,789.3 805.2,725.9 786.3,615 C783.5,598.4 782.2,581.8 781.6,563.6 L781.6,563.6 Z M889.3,321.6 C889.5,324.5 889.6,330.2 890.3,335.8 C894,365 913.2,384.9 940.7,388.3 C967.8,391.6 992,377.3 1001.1,351.2 C1008.6,329.9 1008.6,307.9 1001.1,286.5 C992.4,261.8 972.4,248.2 947.1,248.3 C922.4,248.4 903.3,262.2 894.1,286.5 C890.1,296.9 889.4,307.8 889.3,321.6 L889.3,321.6 Z M952.6,592.9 C927.7,594.1 903.7,597.5 880.2,604.1 C875.9,605.3 874.3,606.5 875.2,611.5 C878.3,628.3 882.4,644.6 891,659.5 C912.8,697.7 965.5,711 1003.1,687.7 C1021.8,676.1 1027.8,658.6 1025.4,638 C1023.1,618.5 1012.3,605.1 993.3,598.7 C979.9,594.2 966,593.3 952.6,592.9 L952.6,592.9 Z" id="Shape"></path>
                <path d="M1321.1,416.1 C1299.1,415.3 1277.3,412.9 1255.7,408.4 C1248.9,407 1246.5,408.5 1248.3,415.6 C1249.6,420.4 1250.2,425.4 1251.4,430.2 C1264.4,482.2 1302.1,505.9 1354.7,495.5 C1373,491.9 1390.5,485.5 1408.2,479.6 C1431.7,471.7 1448.9,477.8 1463,497.7 C1466.2,502.2 1465.6,504.6 1462,508.4 C1384.2,589 1241.2,591.3 1175.1,473.8 C1133,399 1146.2,294.8 1204.3,237.6 C1271.2,171.7 1372.3,179.3 1430.9,222.9 C1468,250.5 1481.7,288.3 1473.4,333.7 C1469.4,355.7 1455.5,371.2 1438.4,384.1 C1412.5,403.5 1382.4,411 1350.9,414.2 C1341,415.2 1331,415.5 1321.1,416.1 L1321.1,416.1 Z M1310.7,353.6 C1331.7,353.8 1349.6,350.3 1364,343.1 C1383.2,333.5 1392.1,316.9 1389.9,294.8 C1388.3,278.8 1374.9,264.4 1356.5,259 C1320.3,248.4 1283.8,262.6 1264.3,294.9 C1256.4,307.9 1252.2,322.1 1249.1,336.8 C1247.8,343.1 1250,345 1255.4,346.1 C1273.7,350.1 1292,353.3 1310.7,353.6 L1310.7,353.6 Z" id="Shape"></path>
                <path d="M722.5,441 C722.5,476.9 722.2,512.9 722.7,548.8 C722.8,556.6 720.5,558.5 713.1,557.8 C695.1,556.1 677.4,553.7 661.1,545.2 C631.8,530.1 623.4,503.7 622.9,473.5 C622.5,442.9 623.2,412.3 623.6,381.6 C623.9,358.3 624.4,335 618.6,312.1 C604.1,255.2 557.4,249 519.4,261 C503.6,266 493.9,278.4 486.7,292.9 C478.8,309 475.1,326.4 475,344.1 C474.7,413.3 472.4,482.6 477.9,551.7 C478.3,557.2 476.4,557.9 472,557.7 C454.7,556.7 437.6,554.6 421.4,547.6 C395.6,536.5 380.5,516.3 379.6,489.2 C377.6,430.7 374.4,371.9 382.8,313.8 C392.4,246.9 433.6,205.8 499.7,193.6 C535.8,186.9 571.9,187.8 607.8,195.8 C667.7,209.3 707.4,253.1 716.4,315.4 C722.3,357 719,399.1 722.5,441 L722.5,441 Z" id="Shape"></path>
                <path d="M318.9,367.8 C318.7,403.9 314.2,435 301.4,464.5 C272.2,531.8 204.2,571.7 131.1,565.4 C103,563 76.6,556.3 52.8,541.3 C13.8,516.7 -1.7,480.1 1.2,435 C3.8,394 25.9,366.2 62,349.4 C112.2,326 164.4,326.3 217.2,339.1 C228.8,341.9 228.7,342.1 227,330.3 C226.8,329 226.6,327.7 226.3,326.4 C215.2,269.5 182.5,246.4 119.5,259.7 C99.1,264 80.1,274.2 58.9,275.6 C41.6,276.7 27.6,271.4 18.2,255.9 C15.6,251.6 15.1,248.7 19,244.7 C80.2,180.9 194.5,165.7 264.2,229.3 C296,258.3 311.3,295.4 316.9,337.2 C318.4,348.7 319.2,360.3 318.9,367.8 L318.9,367.8 Z M165.5,390.6 C140.7,390.5 120.3,392.7 102.4,404.6 C85.6,415.8 79.1,432 80.6,451.8 C82.1,472.2 92.6,486.7 111.3,493.4 C137.4,502.7 164,502.1 188.1,487.1 C218.3,468.3 225.9,437.5 228.7,404.7 C229.1,400.2 226.4,399.2 222.8,398.4 C202.6,393.5 182.2,391.2 165.5,390.6 L165.5,390.6 Z" id="Shape"></path>
                <path d="M1695.3,488.7 C1696.5,504.7 1695.4,519.4 1688.8,533.2 C1676.4,559.3 1651.8,570.3 1617.2,565.4 C1574.8,559.4 1546.2,525.9 1543.5,479 C1543.2,473 1543.2,467 1543.2,461 C1543.1,333.2 1543.2,205.5 1542.8,77.7 C1542.7,57.8 1541,37.8 1539.8,17.9 C1539.5,13.3 1540.1,11.1 1545.3,11.4 C1562.6,12.5 1579.7,14.4 1595.9,21.3 C1623.3,32.9 1636.1,54.8 1638.9,83.4 C1639.6,90.7 1639.6,98 1639.6,105.3 C1639.6,221.7 1639.6,338.2 1639.7,454.6 C1639.7,459.6 1639.8,464.6 1640.5,469.5 C1643.8,494.8 1664.7,505.3 1687.3,493.3 C1689.7,492.3 1692.1,490.6 1695.3,488.7 L1695.3,488.7 Z" id="Shape"></path>
                <path d="M1751.3,408.1 C1751.8,384.9 1749.8,354.6 1754.5,324.4 C1765.6,253.8 1810.9,209.8 1882.1,200.6 C1905.7,197.5 1929.3,198.5 1952.9,198 C1958.5,197.9 1960.1,200.1 1961,205.3 C1965.6,232.9 1955,261.4 1918.2,265.4 C1873.5,270.3 1851.4,296.5 1849.2,345.9 C1847.4,385.1 1848.2,424.4 1848.2,463.7 C1848.2,493 1847.1,522.3 1850.5,551.4 C1851.1,556.3 1849.7,558 1844.7,557.7 C1827,556.6 1809.7,554.4 1793.2,547.1 C1762.1,533.4 1752.4,507 1751.4,475.9 C1750.8,455.7 1751.3,435.4 1751.3,408.1 L1751.3,408.1 Z" id="Shape"></path>
                <path d="M942.8,122.4 C899.2,121.9 857.6,118.3 816.9,106.7 C803.7,102.9 791.1,98.1 780.1,89.5 C759.6,73.5 759.7,48.8 780.5,33 C799.5,18.7 822.1,13.7 844.6,9.6 C917.2,-3.7 989.5,-3.2 1061.4,14.9 C1076.3,18.6 1090.7,23.7 1103.1,33.3 C1123.2,48.8 1123.4,73.6 1103.4,89.2 C1085.5,103.2 1063.9,107.7 1042.5,112.5 C1009.2,119.9 975.3,121.9 942.8,122.4 L942.8,122.4 Z M1068.7,62.9 C1020.2,35.2 847.4,35.9 812.4,63.9 C899.5,87.2 984.2,87.2 1068.7,62.9 L1068.7,62.9 Z" id="Shape"></path>
            </g>
        </g>
    </g>
</svg>