<?xml version="1.0" encoding="iso-8859-1"?>
<svg xmlns="http://www.w3.org/2000/svg" xmlns:xlink="http://www.w3.org/1999/xlink" version="1.1" x="0px" y="0px" width="256px" height="256px" viewBox="0 0 256 256" style="enable-background:new 0 0 256 256;" xml:space="preserve">
	<path fill="#343434" d="M240.133,21.321c4.363,0,8.104,1.587,11.221,4.704c3.089,3.174,4.646,6.914,4.646,11.277v181.395 c0,4.363-1.558,8.104-4.646,11.277c-3.117,3.117-6.857,4.704-11.221,4.704H16.235c-4.335,0-8.131-1.587-11.39-4.704 C1.615,226.802,0,223.061,0,218.697V37.303c0-4.363,1.615-8.104,4.846-11.277c3.259-3.117,7.055-4.704,11.39-4.704H240.133 L240.133,21.321z M234.749,42.686H21.393v170.572h213.356V42.686z M70.836,198.014H42.644v-50.435h28.192V198.014z M118.069,198.014 H90.132V90.23h27.938V198.014z M166.123,198.014h-28.22v-82.227h28.22V198.014z M213.329,198.014h-28.165V69.943h28.165V198.014z" style="fill: rgb(48, 100, 188);"></path>
</svg>