<?xml version="1.0" encoding="iso-8859-1"?>
<svg xmlns="http://www.w3.org/2000/svg" xmlns:xlink="http://www.w3.org/1999/xlink" version="1.1" id="Capa_1" x="0px" y="0px" width="24" height="24" viewBox="0 0 24 24" style="enable-background:new 0 0 24 24;" xml:space="preserve">
	<g>
		<path xmlns:default="http://www.w3.org/2000/svg" d="M20 6h-3V4c0-1.11-.89-2-2-2H9c-1.11 0-2 .89-2 2v2H4c-1.11 0-2 .89-2 2v11c0 1.11.89 2 2 2h16c1.11 0 2-.89 2-2V8c0-1.11-.89-2-2-2zM9 4h6v2H9V4zm11 15H4v-2h16v2zm0-5H4V8h3v2h2V8h6v2h2V8h3v6z" style="fill: rgb(48, 100, 188);"></path>
	</g>
</svg>