<?xml version="1.0" encoding="iso-8859-1"?>
<svg xmlns="http://www.w3.org/2000/svg" xmlns:xlink="http://www.w3.org/1999/xlink" version="1.1" x="0px" y="0px" width="24px" height="24px" viewBox="0 0 24 24" style="enable-background:new 0 0 256 256;" xml:space="preserve">
	<g><path xmlns:default="http://www.w3.org/2000/svg" id="comments-o" d="M10.02,6c1.03-0.01,2.04,0.17,3,0.54C13.85,6.85,14.59,7.35,15.2,8c0.51,0.54,0.8,1.25,0.82,2  c-0.02,0.75-0.31,1.46-0.82,2c-0.6,0.65-1.35,1.15-2.18,1.46c-0.96,0.37-1.97,0.55-3,0.54c-0.53,0-1.07-0.05-1.59-0.15l-0.55-0.1  l-0.46,0.32l-0.65,0.41l0.36-0.87l-1-0.58c-0.61-0.34-1.14-0.81-1.55-1.37C4.22,11.18,4.02,10.6,4.02,10c0.02-0.75,0.31-1.46,0.82-2  c0.6-0.65,1.35-1.15,2.18-1.46C7.97,6.18,8.99,5.99,10.02,6L10.02,6z M10.02,4.67C8.75,4.66,7.5,4.9,6.34,5.38  C5.3,5.8,4.38,6.46,3.67,7.32c-0.64,0.75-0.99,1.7-1,2.68c0,0.83,0.26,1.65,0.74,2.33c0.52,0.76,1.2,1.39,2,1.84  c-0.07,0.17-0.14,0.32-0.21,0.46C5.14,14.76,5.08,14.89,5.02,15l-0.23,0.3l-0.27,0.31l-0.24,0.26l0,0v0.05v0.05v0.06v0.05  c0,0.02,0,0.04,0,0.06c0,0.02,0,0.05,0,0.07c0,0.02,0,0.05,0,0.07c0.01,0.09,0.05,0.16,0.12,0.22c0.06,0.05,0.13,0.08,0.21,0.08l0,0  c0.3-0.04,0.6-0.1,0.9-0.17c1.04-0.26,2.02-0.71,2.89-1.33c0.6,0.11,1.22,0.17,1.83,0.17c1.26,0.01,2.51-0.23,3.68-0.71  c1.04-0.41,1.96-1.08,2.67-1.94c1.3-1.55,1.3-3.8,0-5.35c-0.71-0.86-1.63-1.53-2.67-1.94C12.67,4.83,11.34,4.61,10.02,4.67  L10.02,4.67z M18.58,16.84c0.8-0.46,1.48-1.08,2-1.84c1.01-1.41,1.01-3.32,0-4.73c-0.55-0.77-1.28-1.4-2.12-1.85  c0.44,1.41,0.28,2.93-0.44,4.22c-0.5,0.87-1.18,1.63-2,2.21c-0.84,0.6-1.77,1.05-2.75,1.34c-1.04,0.32-2.13,0.47-3.22,0.47H9.13  c1.46,0.92,3.16,1.39,4.89,1.34c0.61,0,1.23-0.06,1.83-0.17c1.12,0.81,2.42,1.32,3.79,1.5c0.08,0.01,0.17-0.02,0.23-0.07  C19.95,19.2,20,19.11,20.02,19l0,0c0,0,0,0,0-0.07v-0.06v-0.05v-0.06v-0.05v-0.05l0,0l-0.24-0.26L19.29,18l-0.27-0.3  c-0.1-0.13-0.19-0.26-0.26-0.4c-0.07-0.14-0.14-0.29-0.21-0.46l0,0L18.58,16.84z" style="fill: rgb(48, 100, 188);"></path></g>
</svg>