<?xml version="1.0" encoding="iso-8859-1"?>
<svg xmlns="http://www.w3.org/2000/svg" xmlns:xlink="http://www.w3.org/1999/xlink" version="1.1" x="0px" y="0px" width="24px" height="24px" viewBox="0 0 24 24" style="enable-background:new 0 0 256 256;" xml:space="preserve">
	<g><path xmlns:default="http://www.w3.org/2000/svg" id="handshake-o" d="M2,13.72c-0.24,0.02-0.47-0.11-0.58-0.33c-0.11-0.21-0.11-0.46,0-0.67C1.53,12.5,1.76,12.37,2,12.39  c0.24-0.02,0.47,0.11,0.58,0.33c0.11,0.21,0.11,0.46,0,0.67C2.47,13.61,2.24,13.74,2,13.72L2,13.72z M17.34,13.12  c0.18,0.22,0.29,0.49,0.32,0.77c0.03,0.25-0.01,0.51-0.12,0.74c-0.12,0.23-0.3,0.42-0.52,0.55c-0.24,0.15-0.52,0.22-0.8,0.22  c-0.16,0.02-0.32-0.01-0.45-0.1c0.01,0.19-0.05,0.37-0.15,0.53c-0.1,0.17-0.22,0.33-0.37,0.47c-0.35,0.34-0.83,0.51-1.32,0.46  c-0.11,0.39-0.39,0.71-0.75,0.88c-0.36,0.19-0.79,0.22-1.17,0.08c-0.35,0.33-0.82,0.51-1.3,0.49c-0.91-0.06-1.76-0.48-2.36-1.16  l-3.11-3.08c-0.06-0.06-0.12-0.1-0.19-0.14l-0.18-0.09c-0.07-0.01-0.14-0.01-0.21,0h-0.2H4V8.06h1.62l1.64-1.65  c0.43-0.45,1.03-0.7,1.65-0.69H10c0.16,0.01,0.33,0.03,0.49,0.06c0.18,0.04,0.35,0.1,0.51,0.19L9.19,8.09c-0.8,0.95-0.8,2.33,0,3.28  c0.52,0.64,1.31,1.01,2.14,1c0.84,0.02,1.64-0.35,2.17-1l1.28-1.4l0.47,0.51l0.42,0.49l0.44,0.55l0.4,0.51l0.43,0.56L17.34,13.12  L17.34,13.12L17.34,13.12z M19,13.72c-0.06-0.54-0.28-1.04-0.62-1.46l-0.67-0.88l-0.86-1.1l-0.62-0.71l-0.6-0.6  c0.11-0.35-0.08-0.73-0.44-0.84c-0.05-0.01-0.1-0.02-0.14-0.03c-0.21-0.01-0.41,0.07-0.56,0.22l-2,2.27  c-0.29,0.34-0.72,0.53-1.16,0.51c-0.45,0-0.87-0.19-1.15-0.54C10,10.34,9.9,10.06,9.9,9.78c-0.01-0.3,0.1-0.59,0.3-0.81l2.18-2.53  c0.37-0.45,0.93-0.71,1.52-0.7h1.74c0.68-0.02,1.32,0.27,1.76,0.79L19,8.39h1v5.33H19z M22,13.72c-0.24,0.02-0.47-0.11-0.58-0.33  c-0.11-0.21-0.11-0.46,0-0.67c0.19-0.32,0.61-0.43,0.93-0.24c0.1,0.06,0.18,0.14,0.24,0.24c0.11,0.21,0.11,0.46,0,0.67  c-0.11,0.22-0.34,0.35-0.58,0.33l0,0H22z M24,7.72c-0.01-0.37-0.3-0.66-0.67-0.67h-3.7l-0.43-0.5l-0.43-0.5l-0.41-0.44  c-0.14-0.15-0.29-0.29-0.45-0.41l-0.46-0.32c-0.17-0.12-0.35-0.21-0.54-0.28c-0.19-0.06-0.39-0.11-0.59-0.15  c-0.23-0.04-0.47-0.06-0.7-0.06h-1.73c-0.67-0.01-1.33,0.2-1.89,0.58c-0.55-0.38-1.21-0.58-1.88-0.58H8.91  c-0.24,0-0.48,0.02-0.71,0.06c-0.22,0.04-0.44,0.1-0.65,0.2L7,4.92C6.81,5.03,6.63,5.16,6.47,5.31L6,5.72l-0.49,0.5l-0.49,0.5H0.67  C0.48,6.73,0.31,6.82,0.2,6.97C0.07,7.09,0,7.26,0,7.44v7c0,0.18,0.07,0.35,0.2,0.47c0.12,0.13,0.29,0.2,0.47,0.2H4.4l3,2.94  c0.33,0.32,0.69,0.6,1.08,0.84c0.38,0.24,0.79,0.42,1.22,0.56c0.43,0.14,0.88,0.19,1.33,0.15c0.46-0.04,0.91-0.18,1.31-0.41  c0.46,0.03,0.92-0.06,1.34-0.26c0.43-0.19,0.8-0.48,1.09-0.85c0.38-0.08,0.75-0.24,1.07-0.47c0.33-0.23,0.61-0.52,0.84-0.85  c0.47-0.07,0.92-0.25,1.3-0.54c0.38-0.29,0.67-0.67,0.85-1.11h4.52c0.38-0.02,0.67-0.33,0.65-0.71c0,0,0-0.01,0-0.01V7.72L24,7.72z" style="fill: rgb(48, 100, 188);"></path></g>
</svg>