<?xml version="1.0" encoding="iso-8859-1"?>
<svg xmlns="http://www.w3.org/2000/svg" xmlns:xlink="http://www.w3.org/1999/xlink" version="1.1" x="0px" y="0px" width="24px" height="24px" viewBox="0 0 24 24">
	<g><path xmlns:default="http://www.w3.org/2000/svg" id="newspaper-o" d="M12,12.67H8v-4h4V12.67z M13.33,15.34H6.67v1.33h6.66v-1.34l0,0V15.34z M6.67,7.34V14h6.66V7.34H6.67z M20,15.34h-5.33v1.33H20v-1.34l0,0V15.34z M14.67,12.67V14H20v-1.33H14.67z M14.67,10v1.33H20V10H14.67z M14.67,7.33v1.34H20V7.34 h-5.33V7.33z M4,17.33c0,0.36-0.29,0.66-0.65,0.67C3.17,18,3,17.93,2.87,17.8c-0.13-0.12-0.2-0.29-0.2-0.47v-10H4V17.33L4,17.33z   M21.32,17.33c-0.01,0.37-0.3,0.66-0.67,0.67H5.22c0.07-0.22,0.11-0.44,0.11-0.67V6h16v11.33l0,0H21.32z M22.66,4.67H4V6H1.34v11.33  c-0.01,0.53,0.2,1.05,0.58,1.42c0.37,0.38,0.89,0.59,1.42,0.58h17.32c1.1,0,2-0.9,2-2V4.67L22.66,4.67z" style="fill: #fff"></path></g>
</svg>