<?xml version="1.0" encoding="iso-8859-1"?>
<svg xmlns="http://www.w3.org/2000/svg" xmlns:xlink="http://www.w3.org/1999/xlink" version="1.1" x="0px" y="0px" width="24px" height="24px" viewBox="0 0 24 24" style="enable-background:new 0 0 256 256;" xml:space="preserve">
	<g><path xmlns:default="http://www.w3.org/2000/svg" id="line-chart" d="M22.66,18.66h-20V4H1.34v16h21.32V18.66L22.66,18.66z M21.33,5.66c0-0.18-0.14-0.32-0.32-0.32  c0,0-0.01,0-0.01,0h-4.53c-0.18,0-0.33,0.14-0.33,0.33c0,0.09,0.04,0.18,0.1,0.24l1.26,1.26L12.67,12l-2.43-2.43  c-0.13-0.13-0.33-0.14-0.47-0.01c0,0-0.01,0.01-0.01,0.01l-6.09,6.09l2,2L10,13.33l2.43,2.43c0.13,0.13,0.33,0.14,0.47,0.01  c0,0,0.01-0.01,0.01-0.01l6.59-6.59l1.26,1.26c0.13,0.13,0.33,0.14,0.47,0.01c0.07-0.06,0.1-0.15,0.1-0.24V5.67l0,0V5.66z" style="fill: rgb(48, 100, 188);"></path></g>
</svg>