<?xml version="1.0" encoding="UTF-8"?>
<svg width="58px" height="72px" viewBox="0 0 58 72" version="1.1" xmlns="http://www.w3.org/2000/svg" xmlns:xlink="http://www.w3.org/1999/xlink">
    <!-- Generator: Sketch 3.8.1 (29687) - http://www.bohemiancoding.com/sketch -->
    <title>Group</title>
    <desc>Created with Sketch.</desc>
    <defs></defs>
    <g id="Page-1" stroke="none" stroke-width="1" fill="none" fill-rule="evenodd">
        <g id="noun_899624_cc" fill="#959595">
            <g id="Group">
                <path d="M47,18 C47,8.1 38.9,0 29,0 C19.1,0 11,8.1 11,18 C11,27.9 19.1,36 29,36 C38.9,36 47,27.9 47,18 L47,18 Z M14,18 C14,9.8 20.7,3 29,3 C37.3,3 44,9.7 44,18 C44,26.3 37.3,33 29,33 C20.7,33 14,26.2 14,18 L14,18 Z" id="Shape"></path>
                <path d="M58,72 L58,70.5 C58,53.7 45.2,40.5 29,40.5 C12.8,40.5 0,53.7 0,70.5 L0,72 L3,72 L3,70.5 C3,55.3 14.5,43.5 29,43.5 C43.5,43.5 55,55.4 55,70.5 L55,72 L58,72 L58,72 Z" id="Shape"></path>
            </g>
        </g>
    </g>
</svg>