<?xml version="1.0" encoding="UTF-8"?>
<svg width="277px" height="50px" viewBox="0 0 277 50" version="1.1" xmlns="http://www.w3.org/2000/svg" xmlns:xlink="http://www.w3.org/1999/xlink">
    <!-- Generator: Sketch 45.1 (43504) - http://www.bohemiancoding.com/sketch -->
    <title>Bofink-logotype-CMYK (1) Copy 2</title>
    <desc>Created with Sketch.</desc>
    <defs></defs>
    <g id="Bofink" stroke="none" stroke-width="1" fill="none" fill-rule="evenodd">
        <g id="Bofink--Landing-page--mobile-hamburgermeny" transform="translate(-38.000000, -175.000000)" fill="#00DCB6">
            <g id="Block-1">
                <g id="Bofink-logotype-CMYK-(1)-Copy-2" transform="translate(38.000000, 175.000000)">
                    <path d="M163.203463,0.16911789 L163.203463,46.3179483 C163.203463,48.3204501 161.745801,49.9446529 159.82351,49.9446529 L159.82351,3.79582251 C159.82351,1.79259038 161.281172,0.16911789 163.203463,0.16911789" id="Fill-1"></path>
                    <path d="M192.432776,0.16911789 L192.432776,0.16911789 L217.96962,41.8382451 L218.251396,41.8382451 L218.251396,3.58184256 C218.251396,1.69692016 219.763593,0.16911789 221.628372,0.16911789 L221.628372,47.1044889 C221.628372,48.6724581 220.370495,49.9446529 218.819283,49.9446529 L218.813503,49.9446529 L193.418991,8.27552572 L193.137216,8.27552572 L193.137216,46.5311979 C193.137216,48.4161203 191.625018,49.9446529 189.76024,49.9446529 L189.76024,2.87125384 C189.76024,1.37923661 190.956704,0.16911789 192.432776,0.16911789" id="Fill-2"></path>
                    <g id="Group-6">
                        <path d="M68.3732365,3.61843234 C60.2483035,3.61843234 52.9525484,22.1321661 52.9525484,30.875835 C52.9525484,39.4512304 59.8698285,46.4276627 68.3732365,46.4276627 C76.8766446,46.4276627 83.7939247,39.4512304 83.7939247,30.875835 C83.7939247,22.1321661 76.4981696,3.61843234 68.3732365,3.61843234 Z M68.3732365,49.9439245 C57.9471179,49.9439245 49.4661006,41.3903828 49.4661006,30.875835 C49.4661006,20.6126048 57.6401487,0.101442117 68.3732365,0.101442117 C79.1063244,0.101442117 87.2803725,20.6126048 87.2803725,30.875835 C87.2803725,41.3903828 78.7979106,49.9439245 68.3732365,49.9439245 L68.3732365,49.9439245 Z" id="Fill-3"></path>
                        <path d="M13.43225,22.4060659 L3.58684484,22.4060659 L3.58684484,3.46764174 L13.9949065,3.46764174 C21.5196245,3.46764174 23.4184998,7.58123822 23.4184998,12.9011594 C23.4184998,19.2139675 19.1989373,22.4060659 13.43225,22.4060659 Z M27.0754059,12.68845 C27.0754059,5.38202664 23.4892833,0.13422268 13.9949065,0.13422268 L1.98771587,0.13422268 C0.889849544,0.13422268 0,1.03168166 0,2.13893624 L0,23.5967074 L0,23.5967074 C2.09738034e-15,24.7012769 0.8954305,25.5967074 2,25.5967074 L13.7840006,25.5967074 C21.0978127,25.5967074 25.1765305,28.7181455 25.1765305,36.0238403 C25.1765305,43.4708559 21.0277514,46.4495164 13.8540618,46.4495164 L3.58684484,46.4495164 L3.58684484,31.8766706 L3.58684484,31.8766706 C3.58684484,30.4959587 2.46755671,29.3766706 1.08684484,29.3766706 L0,29.3766706 L0,47.7898772 C0,48.8905757 0.884793581,49.7836639 1.97615938,49.7836639 L14.2765959,49.7836639 C25.8800317,49.7836639 28.8334365,42.3359199 28.8334365,36.0238403 C28.8334365,28.3626585 25.247314,24.81653 20.2541891,23.6109337 C24.2628457,22.2632883 27.0754059,18.1496918 27.0754059,12.68845 Z" id="Fill-5"></path>
                    </g>
                    <path d="M133.544151,3.55506967 C134.457891,3.55506967 135.198135,2.79663423 135.198135,1.86209378 C135.198135,0.92755333 134.457891,0.16911789 133.544151,0.16911789 L113.045018,0.16911789 C111.946218,0.16911789 111.055611,1.08072029 111.055611,2.20542455 L111.055611,26.0328763 L132.206796,26.0328763 C133.120535,26.0328763 133.860779,25.2751808 133.860779,24.3399004 C133.860779,23.4060999 133.120535,22.6476644 132.206796,22.6476644 L114.645508,22.6476644 L114.645508,3.55506967 L133.544151,3.55506967" id="Fill-7"></path>
                    <path d="M111.05579,48.9670018 C113.187449,48.9670018 114.916409,47.3786039 114.916409,45.4202466 L114.916409,31.4591887 L114.916409,31.4591887 C114.916409,30.0784768 113.797121,28.9591887 112.416409,28.9591887 L111.05579,28.9591887 L111.05579,48.9670018 Z" id="Fill-8"></path>
                    <path d="M247.702298,48.968662 C249.835163,48.968662 251.565102,47.3802642 251.565102,45.4219068 L251.565102,31.4608489 L251.565102,31.4608489 C251.565102,30.0801371 250.445813,28.9608489 249.065102,28.9608489 L247.702298,28.9608489 L247.702298,48.968662 Z" id="Fill-9"></path>
                    <path d="M261.412792,23.6864643 L275.610777,0.16911789 C273.102559,0.16911789 270.7759,1.50119788 269.465679,3.68627646 L258.281273,22.3353963 L251.251973,22.3353963 L251.251973,0.16911789 C249.292003,0.16911789 247.702298,1.79259038 247.702298,3.79509221 L247.702298,25.6772812 L258.489993,25.6772812 L270.048952,46.3011512 C271.307707,48.5534181 273.651522,49.9446529 276.190476,49.9446529 L261.412792,23.6864643" id="Fill-10"></path>
                </g>
            </g>
        </g>
    </g>
</svg>